<mxfile host="app.diagrams.net" agent="Mozilla/5.0 (Windows NT 10.0; Win64; x64; rv:135.0) Gecko/20100101 Firefox/135.0" version="25.0.1">
  <diagram id="C5RBs43oDa-KdzZeNtuy" name="Page-1">
    <mxGraphModel dx="2741" dy="985" grid="1" gridSize="10" guides="1" tooltips="1" connect="1" arrows="1" fold="1" page="1" pageScale="1" pageWidth="827" pageHeight="1169" math="0" shadow="0">
      <root>
        <mxCell id="WIyWlLk6GJQsqaUBKTNV-0" />
        <mxCell id="WIyWlLk6GJQsqaUBKTNV-1" parent="WIyWlLk6GJQsqaUBKTNV-0" />
        <mxCell id="WIyWlLk6GJQsqaUBKTNV-3" value="Menü | Dátum" style="rounded=1;whiteSpace=wrap;html=1;fontSize=12;glass=0;strokeWidth=1;shadow=0;" parent="WIyWlLk6GJQsqaUBKTNV-1" vertex="1">
          <mxGeometry x="354" y="90" width="120" height="40" as="geometry" />
        </mxCell>
        <mxCell id="7M7O3-cliNXXoWdo_1UW-0" value="Időjárás szimuláció&#xa;&#xa;&#xa;Egy egyszerű modell, amely különböző időjárási eseményeket szimulál.&#xa;&#xa;- Dátum számlálás&#xa;&#xa;    Objektumok: Időjárásállapot (eső, napsütés, szél), Felhő, Hőmérséklet, Régió., Csapadék forma stb&#xa;    Működés: A program időjárást generál különböző helyszínekre, és ez hatással van az adott területek eseményeire (pl. mezőgazdaság, közlekedés).&#xa;    Bővítés: Éghajlatváltozás vagy katasztrófák (pl. vihar, hóvihar).&#xa;&#xa;&#xa;&#xa;&#xa;" style="text;whiteSpace=wrap;" parent="WIyWlLk6GJQsqaUBKTNV-1" vertex="1">
          <mxGeometry x="-560" y="245" width="560" height="170" as="geometry" />
        </mxCell>
        <mxCell id="7M7O3-cliNXXoWdo_1UW-1" value="&lt;font style=&quot;font-size: 19px;&quot;&gt;&lt;b&gt;Időjárás szimuláció&lt;/b&gt;&lt;/font&gt;" style="text;html=1;align=center;verticalAlign=middle;whiteSpace=wrap;rounded=0;" parent="WIyWlLk6GJQsqaUBKTNV-1" vertex="1">
          <mxGeometry x="294" y="30" width="240" height="30" as="geometry" />
        </mxCell>
        <mxCell id="7M7O3-cliNXXoWdo_1UW-6" value="" style="rounded=1;whiteSpace=wrap;html=1;" parent="WIyWlLk6GJQsqaUBKTNV-1" vertex="1">
          <mxGeometry x="160" y="190" width="120" height="30" as="geometry" />
        </mxCell>
        <mxCell id="7M7O3-cliNXXoWdo_1UW-7" value="" style="rounded=1;whiteSpace=wrap;html=1;" parent="WIyWlLk6GJQsqaUBKTNV-1" vertex="1">
          <mxGeometry x="354" y="190" width="120" height="30" as="geometry" />
        </mxCell>
        <mxCell id="7M7O3-cliNXXoWdo_1UW-8" value="" style="rounded=1;whiteSpace=wrap;html=1;" parent="WIyWlLk6GJQsqaUBKTNV-1" vertex="1">
          <mxGeometry x="550" y="190" width="120" height="30" as="geometry" />
        </mxCell>
        <mxCell id="7M7O3-cliNXXoWdo_1UW-10" value="mai napi statisztikák" style="text;html=1;align=center;verticalAlign=middle;whiteSpace=wrap;rounded=0;" parent="WIyWlLk6GJQsqaUBKTNV-1" vertex="1">
          <mxGeometry x="190" y="190" width="60" height="30" as="geometry" />
        </mxCell>
        <mxCell id="7M7O3-cliNXXoWdo_1UW-11" value="következő nap" style="text;html=1;align=center;verticalAlign=middle;whiteSpace=wrap;rounded=0;" parent="WIyWlLk6GJQsqaUBKTNV-1" vertex="1">
          <mxGeometry x="376" y="190" width="76" height="30" as="geometry" />
        </mxCell>
        <mxCell id="7M7O3-cliNXXoWdo_1UW-12" value="Kilépés" style="text;html=1;align=center;verticalAlign=middle;whiteSpace=wrap;rounded=0;" parent="WIyWlLk6GJQsqaUBKTNV-1" vertex="1">
          <mxGeometry x="580" y="190" width="60" height="30" as="geometry" />
        </mxCell>
        <mxCell id="7M7O3-cliNXXoWdo_1UW-13" value="" style="endArrow=none;html=1;rounded=0;entryX=0.5;entryY=1;entryDx=0;entryDy=0;exitX=0.323;exitY=0.076;exitDx=0;exitDy=0;exitPerimeter=0;" parent="WIyWlLk6GJQsqaUBKTNV-1" source="7M7O3-cliNXXoWdo_1UW-6" target="WIyWlLk6GJQsqaUBKTNV-3" edge="1">
          <mxGeometry width="50" height="50" relative="1" as="geometry">
            <mxPoint x="350" y="220" as="sourcePoint" />
            <mxPoint x="400" y="170" as="targetPoint" />
            <Array as="points">
              <mxPoint x="200" y="160" />
              <mxPoint x="414" y="160" />
              <mxPoint x="414" y="190" />
            </Array>
          </mxGeometry>
        </mxCell>
        <mxCell id="7M7O3-cliNXXoWdo_1UW-14" value="" style="endArrow=none;html=1;rounded=0;fillColor=#f5f5f5;strokeColor=#666666;" parent="WIyWlLk6GJQsqaUBKTNV-1" edge="1">
          <mxGeometry width="50" height="50" relative="1" as="geometry">
            <mxPoint x="610" y="190" as="sourcePoint" />
            <mxPoint x="410" y="160" as="targetPoint" />
            <Array as="points">
              <mxPoint x="610" y="160" />
            </Array>
          </mxGeometry>
        </mxCell>
        <mxCell id="7M7O3-cliNXXoWdo_1UW-15" value="" style="rounded=0;whiteSpace=wrap;html=1;fillColor=#f5f5f5;fontColor=#333333;strokeColor=#666666;" parent="WIyWlLk6GJQsqaUBKTNV-1" vertex="1">
          <mxGeometry x="-120" y="480" width="120" height="250" as="geometry" />
        </mxCell>
        <mxCell id="7M7O3-cliNXXoWdo_1UW-16" value="Régió" style="text;html=1;align=center;verticalAlign=middle;whiteSpace=wrap;rounded=0;" parent="WIyWlLk6GJQsqaUBKTNV-1" vertex="1">
          <mxGeometry x="-110" y="480" width="100" height="30" as="geometry" />
        </mxCell>
        <mxCell id="7M7O3-cliNXXoWdo_1UW-17" value="&lt;div&gt;&lt;span style=&quot;background-color: transparent;&quot;&gt;Típus&lt;/span&gt;&lt;/div&gt;&lt;div&gt;&lt;span style=&quot;color: light-dark(rgb(255, 59, 0), rgb(255, 122, 71)); background-color: transparent;&quot;&gt;szél: irány, sebesség&lt;/span&gt;&lt;/div&gt;&lt;div&gt;&lt;font style=&quot;color: rgb(255, 0, 67);&quot;&gt;Csapadék&lt;/font&gt;: (&lt;font style=&quot;color: rgb(181, 35, 255);&quot;&gt;típus&lt;/font&gt;, mennyiség)&lt;/div&gt;&lt;div&gt;Átlaghőmérséklet: °C&amp;nbsp;&lt;/div&gt;&lt;div&gt;&lt;span style=&quot;background-color: transparent; color: light-dark(rgb(0, 0, 0), rgb(255, 255, 255));&quot;&gt;Naplemente: x óra&lt;/span&gt;&lt;/div&gt;&lt;div&gt;Napfelkelte: x óra&amp;nbsp;&lt;/div&gt;" style="text;html=1;align=left;verticalAlign=middle;whiteSpace=wrap;rounded=0;" parent="WIyWlLk6GJQsqaUBKTNV-1" vertex="1">
          <mxGeometry x="-117.5" y="530" width="115" height="70" as="geometry" />
        </mxCell>
        <mxCell id="7M7O3-cliNXXoWdo_1UW-19" value="állapot" style="swimlane;fontStyle=0;childLayout=stackLayout;horizontal=1;startSize=30;horizontalStack=0;resizeParent=1;resizeParentMax=0;resizeLast=0;collapsible=1;marginBottom=0;whiteSpace=wrap;html=1;" parent="WIyWlLk6GJQsqaUBKTNV-1" vertex="1">
          <mxGeometry x="-270" y="480" width="140" height="180" as="geometry" />
        </mxCell>
        <mxCell id="7M7O3-cliNXXoWdo_1UW-20" value="Napos" style="text;strokeColor=none;fillColor=none;align=left;verticalAlign=middle;spacingLeft=4;spacingRight=4;overflow=hidden;points=[[0,0.5],[1,0.5]];portConstraint=eastwest;rotatable=0;whiteSpace=wrap;html=1;" parent="7M7O3-cliNXXoWdo_1UW-19" vertex="1">
          <mxGeometry y="30" width="140" height="30" as="geometry" />
        </mxCell>
        <mxCell id="7M7O3-cliNXXoWdo_1UW-21" value="Ködös" style="text;strokeColor=none;fillColor=none;align=left;verticalAlign=middle;spacingLeft=4;spacingRight=4;overflow=hidden;points=[[0,0.5],[1,0.5]];portConstraint=eastwest;rotatable=0;whiteSpace=wrap;html=1;" parent="7M7O3-cliNXXoWdo_1UW-19" vertex="1">
          <mxGeometry y="60" width="140" height="30" as="geometry" />
        </mxCell>
        <mxCell id="7M7O3-cliNXXoWdo_1UW-22" value="&lt;div&gt;Viharos&lt;/div&gt;" style="text;strokeColor=none;fillColor=none;align=left;verticalAlign=middle;spacingLeft=4;spacingRight=4;overflow=hidden;points=[[0,0.5],[1,0.5]];portConstraint=eastwest;rotatable=0;whiteSpace=wrap;html=1;" parent="7M7O3-cliNXXoWdo_1UW-19" vertex="1">
          <mxGeometry y="90" width="140" height="30" as="geometry" />
        </mxCell>
        <mxCell id="7M7O3-cliNXXoWdo_1UW-41" value="&lt;div&gt;Csapadékos&lt;/div&gt;" style="text;strokeColor=none;fillColor=none;align=left;verticalAlign=middle;spacingLeft=4;spacingRight=4;overflow=hidden;points=[[0,0.5],[1,0.5]];portConstraint=eastwest;rotatable=0;whiteSpace=wrap;html=1;" parent="7M7O3-cliNXXoWdo_1UW-19" vertex="1">
          <mxGeometry y="120" width="140" height="20" as="geometry" />
        </mxCell>
        <mxCell id="7M7O3-cliNXXoWdo_1UW-42" value="&lt;div&gt;Szeles&lt;/div&gt;" style="text;strokeColor=none;fillColor=none;align=left;verticalAlign=middle;spacingLeft=4;spacingRight=4;overflow=hidden;points=[[0,0.5],[1,0.5]];portConstraint=eastwest;rotatable=0;whiteSpace=wrap;html=1;" parent="7M7O3-cliNXXoWdo_1UW-19" vertex="1">
          <mxGeometry y="140" width="140" height="40" as="geometry" />
        </mxCell>
        <mxCell id="7M7O3-cliNXXoWdo_1UW-44" value="&lt;span&gt;&lt;font style=&quot;color: rgb(0, 0, 0);&quot;&gt;csapadék&lt;/font&gt;&lt;/span&gt;" style="swimlane;fontStyle=0;childLayout=stackLayout;horizontal=1;startSize=30;horizontalStack=0;resizeParent=1;resizeParentMax=0;resizeLast=0;collapsible=1;marginBottom=0;whiteSpace=wrap;html=1;" parent="WIyWlLk6GJQsqaUBKTNV-1" vertex="1">
          <mxGeometry x="-270" y="670" width="140" height="150" as="geometry" />
        </mxCell>
        <mxCell id="7M7O3-cliNXXoWdo_1UW-45" value="Ónos eső" style="text;strokeColor=none;fillColor=none;align=left;verticalAlign=middle;spacingLeft=4;spacingRight=4;overflow=hidden;points=[[0,0.5],[1,0.5]];portConstraint=eastwest;rotatable=0;whiteSpace=wrap;html=1;" parent="7M7O3-cliNXXoWdo_1UW-44" vertex="1">
          <mxGeometry y="30" width="140" height="30" as="geometry" />
        </mxCell>
        <mxCell id="7M7O3-cliNXXoWdo_1UW-46" value="Felhőszakadás" style="text;strokeColor=none;fillColor=none;align=left;verticalAlign=middle;spacingLeft=4;spacingRight=4;overflow=hidden;points=[[0,0.5],[1,0.5]];portConstraint=eastwest;rotatable=0;whiteSpace=wrap;html=1;" parent="7M7O3-cliNXXoWdo_1UW-44" vertex="1">
          <mxGeometry y="60" width="140" height="30" as="geometry" />
        </mxCell>
        <mxCell id="7M7O3-cliNXXoWdo_1UW-47" value="&lt;div&gt;Jeges eső&lt;/div&gt;" style="text;strokeColor=none;fillColor=none;align=left;verticalAlign=middle;spacingLeft=4;spacingRight=4;overflow=hidden;points=[[0,0.5],[1,0.5]];portConstraint=eastwest;rotatable=0;whiteSpace=wrap;html=1;" parent="7M7O3-cliNXXoWdo_1UW-44" vertex="1">
          <mxGeometry y="90" width="140" height="30" as="geometry" />
        </mxCell>
        <mxCell id="7M7O3-cliNXXoWdo_1UW-48" value="Hófúvás" style="text;strokeColor=none;fillColor=none;align=left;verticalAlign=middle;spacingLeft=4;spacingRight=4;overflow=hidden;points=[[0,0.5],[1,0.5]];portConstraint=eastwest;rotatable=0;whiteSpace=wrap;html=1;" parent="7M7O3-cliNXXoWdo_1UW-44" vertex="1">
          <mxGeometry y="120" width="140" height="20" as="geometry" />
        </mxCell>
        <mxCell id="7M7O3-cliNXXoWdo_1UW-50" style="text;strokeColor=none;fillColor=none;align=left;verticalAlign=middle;spacingLeft=4;spacingRight=4;overflow=hidden;points=[[0,0.5],[1,0.5]];portConstraint=eastwest;rotatable=0;whiteSpace=wrap;html=1;" parent="7M7O3-cliNXXoWdo_1UW-44" vertex="1">
          <mxGeometry y="140" width="140" height="10" as="geometry" />
        </mxCell>
        <mxCell id="7M7O3-cliNXXoWdo_1UW-52" value="&lt;font style=&quot;color: rgb(0, 0, 0);&quot;&gt;&lt;font&gt;É&lt;/font&gt;&lt;font&gt;vszaktól függően feltölteni listákat, amelyekből randomizálhat kisebb nagyobb eséllye&lt;/font&gt;&lt;font&gt;l&lt;/font&gt;&lt;/font&gt;" style="text;html=1;align=center;verticalAlign=middle;whiteSpace=wrap;rounded=0;" parent="WIyWlLk6GJQsqaUBKTNV-1" vertex="1">
          <mxGeometry x="320" y="400" width="170" height="30" as="geometry" />
        </mxCell>
        <mxCell id="YnSX1j3OJIaIgDTKMFgm-1" value="" style="rounded=0;whiteSpace=wrap;html=1;fillColor=#f5f5f5;fontColor=#333333;strokeColor=#666666;" parent="WIyWlLk6GJQsqaUBKTNV-1" vertex="1">
          <mxGeometry x="-270" y="830" width="140" height="50" as="geometry" />
        </mxCell>
        <mxCell id="YnSX1j3OJIaIgDTKMFgm-2" value="&lt;font style=&quot;color: rgb(255, 33, 33);&quot;&gt;Természeti Katasztrófák / Figyelmeztetése&lt;/font&gt;" style="text;html=1;align=center;verticalAlign=middle;whiteSpace=wrap;rounded=0;" parent="WIyWlLk6GJQsqaUBKTNV-1" vertex="1">
          <mxGeometry x="-290" y="840" width="180" height="30" as="geometry" />
        </mxCell>
        <mxCell id="YnSX1j3OJIaIgDTKMFgm-3" value="" style="endArrow=classic;html=1;rounded=0;exitX=0.5;exitY=1;exitDx=0;exitDy=0;" parent="WIyWlLk6GJQsqaUBKTNV-1" source="7M7O3-cliNXXoWdo_1UW-11" edge="1">
          <mxGeometry width="50" height="50" relative="1" as="geometry">
            <mxPoint x="370" y="410" as="sourcePoint" />
            <mxPoint x="320" y="370" as="targetPoint" />
          </mxGeometry>
        </mxCell>
        <mxCell id="YnSX1j3OJIaIgDTKMFgm-4" value="&lt;font style=&quot;color: rgb(219, 79, 255);&quot;&gt;Név&lt;/font&gt;" style="text;html=1;align=center;verticalAlign=middle;whiteSpace=wrap;rounded=0;" parent="WIyWlLk6GJQsqaUBKTNV-1" vertex="1">
          <mxGeometry x="-120" y="670" width="60" height="30" as="geometry" />
        </mxCell>
        <mxCell id="YnSX1j3OJIaIgDTKMFgm-6" value="Nap elején generál minden régióhoz eseményeket, adatokat" style="text;html=1;align=center;verticalAlign=middle;whiteSpace=wrap;rounded=0;" parent="WIyWlLk6GJQsqaUBKTNV-1" vertex="1">
          <mxGeometry x="308" y="270" width="144" height="30" as="geometry" />
        </mxCell>
        <mxCell id="YnSX1j3OJIaIgDTKMFgm-8" value="&lt;b&gt;&lt;font style=&quot;color: rgb(255, 0, 0);&quot;&gt;Régiók kilistázása&lt;/font&gt;&lt;/b&gt;" style="text;html=1;align=center;verticalAlign=middle;whiteSpace=wrap;rounded=0;" parent="WIyWlLk6GJQsqaUBKTNV-1" vertex="1">
          <mxGeometry x="100" y="200" width="60" height="30" as="geometry" />
        </mxCell>
        <mxCell id="YnSX1j3OJIaIgDTKMFgm-9" value="&lt;b&gt;&lt;font style=&quot;color: rgb(255, 0, 0);&quot;&gt;Régiókkal feltöltjük a listát&lt;/font&gt;&lt;/b&gt;&lt;div&gt;&lt;b&gt;&lt;font style=&quot;color: rgb(255, 0, 0);&quot;&gt;&lt;br&gt;&lt;/font&gt;&lt;/b&gt;&lt;/div&gt;&lt;div&gt;&lt;font color=&quot;#ff0000&quot;&gt;&lt;b&gt;példányosításkor névvel látjuk el, megkapja az évszakot&lt;/b&gt;&lt;/font&gt;&lt;/div&gt;" style="text;html=1;align=center;verticalAlign=middle;whiteSpace=wrap;rounded=0;" parent="WIyWlLk6GJQsqaUBKTNV-1" vertex="1">
          <mxGeometry x="490" y="80" width="176" height="30" as="geometry" />
        </mxCell>
        <mxCell id="YnSX1j3OJIaIgDTKMFgm-10" value="&lt;font style=&quot;color: rgb(255, 63, 229);&quot;&gt;Évszak&lt;/font&gt;" style="text;html=1;align=center;verticalAlign=middle;whiteSpace=wrap;rounded=0;" parent="WIyWlLk6GJQsqaUBKTNV-1" vertex="1">
          <mxGeometry x="-117.5" y="690" width="60" height="30" as="geometry" />
        </mxCell>
        <mxCell id="YnSX1j3OJIaIgDTKMFgm-11" value="Többi dolgot már csak kiolvasni lehet" style="text;html=1;align=center;verticalAlign=middle;whiteSpace=wrap;rounded=0;" parent="WIyWlLk6GJQsqaUBKTNV-1" vertex="1">
          <mxGeometry x="670" y="95" width="90" height="30" as="geometry" />
        </mxCell>
        <mxCell id="YnSX1j3OJIaIgDTKMFgm-18" value="" style="rounded=0;whiteSpace=wrap;html=1;fillColor=#f5f5f5;fontColor=#333333;strokeColor=#666666;" parent="WIyWlLk6GJQsqaUBKTNV-1" vertex="1">
          <mxGeometry x="570" y="265" width="120" height="295" as="geometry" />
        </mxCell>
        <mxCell id="YnSX1j3OJIaIgDTKMFgm-19" value="Manuális generálás" style="text;html=1;align=center;verticalAlign=middle;whiteSpace=wrap;rounded=0;" parent="WIyWlLk6GJQsqaUBKTNV-1" vertex="1">
          <mxGeometry x="585" y="270" width="90" height="30" as="geometry" />
        </mxCell>
        <mxCell id="YnSX1j3OJIaIgDTKMFgm-20" value="Előre megcsinálni a csapadékokat" style="text;html=1;align=center;verticalAlign=middle;whiteSpace=wrap;rounded=0;" parent="WIyWlLk6GJQsqaUBKTNV-1" vertex="1">
          <mxGeometry x="580" y="315" width="100" height="30" as="geometry" />
        </mxCell>
        <mxCell id="YnSX1j3OJIaIgDTKMFgm-21" value="Szél, példányosításnál semmi" style="text;html=1;align=center;verticalAlign=middle;whiteSpace=wrap;rounded=0;" parent="WIyWlLk6GJQsqaUBKTNV-1" vertex="1">
          <mxGeometry x="580" y="375" width="100" height="30" as="geometry" />
        </mxCell>
        <mxCell id="YnSX1j3OJIaIgDTKMFgm-22" value="Természeti Katasztrófák&lt;div&gt;(típus, szöveg randomizált enumból)&lt;/div&gt;" style="text;html=1;align=center;verticalAlign=middle;whiteSpace=wrap;rounded=0;" parent="WIyWlLk6GJQsqaUBKTNV-1" vertex="1">
          <mxGeometry x="600" y="470" width="60" height="30" as="geometry" />
        </mxCell>
        <mxCell id="YnSX1j3OJIaIgDTKMFgm-26" value="" style="endArrow=none;html=1;rounded=0;entryX=0.5;entryY=1;entryDx=0;entryDy=0;" parent="WIyWlLk6GJQsqaUBKTNV-1" target="7M7O3-cliNXXoWdo_1UW-10" edge="1">
          <mxGeometry width="50" height="50" relative="1" as="geometry">
            <mxPoint x="120" y="270" as="sourcePoint" />
            <mxPoint x="250" y="350" as="targetPoint" />
            <Array as="points">
              <mxPoint x="120" y="240" />
              <mxPoint x="220" y="240" />
            </Array>
          </mxGeometry>
        </mxCell>
        <mxCell id="YnSX1j3OJIaIgDTKMFgm-27" value="" style="endArrow=none;html=1;rounded=0;" parent="WIyWlLk6GJQsqaUBKTNV-1" edge="1">
          <mxGeometry width="50" height="50" relative="1" as="geometry">
            <mxPoint x="220" y="280" as="sourcePoint" />
            <mxPoint x="220" y="240" as="targetPoint" />
          </mxGeometry>
        </mxCell>
        <mxCell id="YnSX1j3OJIaIgDTKMFgm-29" value="" style="rounded=1;whiteSpace=wrap;html=1;" parent="WIyWlLk6GJQsqaUBKTNV-1" vertex="1">
          <mxGeometry x="50" y="270" width="120" height="30" as="geometry" />
        </mxCell>
        <mxCell id="YnSX1j3OJIaIgDTKMFgm-30" value="" style="rounded=1;whiteSpace=wrap;html=1;" parent="WIyWlLk6GJQsqaUBKTNV-1" vertex="1">
          <mxGeometry x="190" y="270" width="120" height="30" as="geometry" />
        </mxCell>
        <mxCell id="YnSX1j3OJIaIgDTKMFgm-31" value="régió1" style="text;html=1;align=center;verticalAlign=middle;whiteSpace=wrap;rounded=0;" parent="WIyWlLk6GJQsqaUBKTNV-1" vertex="1">
          <mxGeometry x="80" y="270" width="60" height="30" as="geometry" />
        </mxCell>
        <mxCell id="YnSX1j3OJIaIgDTKMFgm-32" value="régió2" style="text;html=1;align=center;verticalAlign=middle;whiteSpace=wrap;rounded=0;" parent="WIyWlLk6GJQsqaUBKTNV-1" vertex="1">
          <mxGeometry x="220" y="270" width="60" height="30" as="geometry" />
        </mxCell>
        <mxCell id="YnSX1j3OJIaIgDTKMFgm-33" value="" style="endArrow=none;html=1;rounded=0;entryX=0.5;entryY=1;entryDx=0;entryDy=0;" parent="WIyWlLk6GJQsqaUBKTNV-1" target="YnSX1j3OJIaIgDTKMFgm-31" edge="1">
          <mxGeometry width="50" height="50" relative="1" as="geometry">
            <mxPoint x="180" y="400" as="sourcePoint" />
            <mxPoint x="180" y="320" as="targetPoint" />
            <Array as="points">
              <mxPoint x="180" y="340" />
              <mxPoint x="110" y="340" />
            </Array>
          </mxGeometry>
        </mxCell>
        <mxCell id="YnSX1j3OJIaIgDTKMFgm-34" value="" style="endArrow=none;html=1;rounded=0;entryX=0.5;entryY=1;entryDx=0;entryDy=0;" parent="WIyWlLk6GJQsqaUBKTNV-1" target="YnSX1j3OJIaIgDTKMFgm-32" edge="1">
          <mxGeometry width="50" height="50" relative="1" as="geometry">
            <mxPoint x="180" y="340" as="sourcePoint" />
            <mxPoint x="250" y="350" as="targetPoint" />
            <Array as="points">
              <mxPoint x="250" y="340" />
            </Array>
          </mxGeometry>
        </mxCell>
        <mxCell id="YnSX1j3OJIaIgDTKMFgm-35" value="" style="endArrow=none;html=1;rounded=0;" parent="WIyWlLk6GJQsqaUBKTNV-1" edge="1">
          <mxGeometry width="50" height="50" relative="1" as="geometry">
            <mxPoint x="80" y="440" as="sourcePoint" />
            <mxPoint x="260" y="440" as="targetPoint" />
            <Array as="points">
              <mxPoint x="80" y="400" />
              <mxPoint x="180" y="400" />
              <mxPoint x="260" y="400" />
            </Array>
          </mxGeometry>
        </mxCell>
        <mxCell id="YnSX1j3OJIaIgDTKMFgm-36" value="Időjárás jelentés" style="rounded=1;whiteSpace=wrap;html=1;" parent="WIyWlLk6GJQsqaUBKTNV-1" vertex="1">
          <mxGeometry x="-20" y="440" width="130" height="30" as="geometry" />
        </mxCell>
        <mxCell id="YnSX1j3OJIaIgDTKMFgm-37" value="Beállítások" style="rounded=1;whiteSpace=wrap;html=1;" parent="WIyWlLk6GJQsqaUBKTNV-1" vertex="1">
          <mxGeometry x="120" y="440" width="120" height="30" as="geometry" />
        </mxCell>
        <mxCell id="YnSX1j3OJIaIgDTKMFgm-38" value="" style="endArrow=none;html=1;rounded=0;entryX=0.5;entryY=0;entryDx=0;entryDy=0;" parent="WIyWlLk6GJQsqaUBKTNV-1" target="YnSX1j3OJIaIgDTKMFgm-37" edge="1">
          <mxGeometry width="50" height="50" relative="1" as="geometry">
            <mxPoint x="180" y="400" as="sourcePoint" />
            <mxPoint x="250" y="350" as="targetPoint" />
          </mxGeometry>
        </mxCell>
        <mxCell id="YnSX1j3OJIaIgDTKMFgm-40" value="Közlekedés" style="rounded=1;whiteSpace=wrap;html=1;" parent="WIyWlLk6GJQsqaUBKTNV-1" vertex="1">
          <mxGeometry x="250" y="440" width="120" height="30" as="geometry" />
        </mxCell>
        <mxCell id="YnSX1j3OJIaIgDTKMFgm-41" style="edgeStyle=orthogonalEdgeStyle;rounded=0;orthogonalLoop=1;jettySize=auto;html=1;exitX=0.5;exitY=1;exitDx=0;exitDy=0;" parent="WIyWlLk6GJQsqaUBKTNV-1" source="7M7O3-cliNXXoWdo_1UW-15" target="7M7O3-cliNXXoWdo_1UW-15" edge="1">
          <mxGeometry relative="1" as="geometry" />
        </mxCell>
        <mxCell id="YnSX1j3OJIaIgDTKMFgm-42" value="metódusok" style="text;html=1;align=center;verticalAlign=middle;whiteSpace=wrap;rounded=0;" parent="WIyWlLk6GJQsqaUBKTNV-1" vertex="1">
          <mxGeometry x="270" y="480" width="60" height="30" as="geometry" />
        </mxCell>
        <mxCell id="zuMJynPyvGd5iTl56l23-0" value="Jegesedés" style="text;html=1;align=center;verticalAlign=middle;whiteSpace=wrap;rounded=0;" parent="WIyWlLk6GJQsqaUBKTNV-1" vertex="1">
          <mxGeometry x="-110" y="790" width="60" height="30" as="geometry" />
        </mxCell>
        <mxCell id="zuMJynPyvGd5iTl56l23-1" value="Uv szint" style="text;html=1;align=center;verticalAlign=middle;whiteSpace=wrap;rounded=0;" parent="WIyWlLk6GJQsqaUBKTNV-1" vertex="1">
          <mxGeometry x="-110" y="850" width="60" height="30" as="geometry" />
        </mxCell>
        <mxCell id="zuMJynPyvGd5iTl56l23-2" value="Hőségriadó" style="text;html=1;align=center;verticalAlign=middle;whiteSpace=wrap;rounded=0;" parent="WIyWlLk6GJQsqaUBKTNV-1" vertex="1">
          <mxGeometry x="-110" y="870" width="60" height="30" as="geometry" />
        </mxCell>
        <mxCell id="zuMJynPyvGd5iTl56l23-3" value="Vihar" style="text;html=1;align=center;verticalAlign=middle;whiteSpace=wrap;rounded=0;" parent="WIyWlLk6GJQsqaUBKTNV-1" vertex="1">
          <mxGeometry x="-110" y="890" width="60" height="30" as="geometry" />
        </mxCell>
        <mxCell id="zuMJynPyvGd5iTl56l23-4" value="Hófúvás" style="text;html=1;align=center;verticalAlign=middle;whiteSpace=wrap;rounded=0;" parent="WIyWlLk6GJQsqaUBKTNV-1" vertex="1">
          <mxGeometry x="-110" y="770" width="60" height="30" as="geometry" />
        </mxCell>
        <mxCell id="zuMJynPyvGd5iTl56l23-6" value="Jelzések&lt;div&gt;Figyelmeztetések&lt;/div&gt;" style="text;html=1;align=center;verticalAlign=middle;whiteSpace=wrap;rounded=0;" parent="WIyWlLk6GJQsqaUBKTNV-1" vertex="1">
          <mxGeometry x="270" y="570" width="60" height="30" as="geometry" />
        </mxCell>
        <mxCell id="zuMJynPyvGd5iTl56l23-8" value="Random események" style="text;html=1;align=center;verticalAlign=middle;whiteSpace=wrap;rounded=0;" parent="WIyWlLk6GJQsqaUBKTNV-1" vertex="1">
          <mxGeometry x="270" y="611" width="60" height="30" as="geometry" />
        </mxCell>
        <mxCell id="zuMJynPyvGd5iTl56l23-9" value="" style="endArrow=none;html=1;rounded=0;entryX=0.181;entryY=0.943;entryDx=0;entryDy=0;entryPerimeter=0;" parent="WIyWlLk6GJQsqaUBKTNV-1" target="zuMJynPyvGd5iTl56l23-8" edge="1">
          <mxGeometry width="50" height="50" relative="1" as="geometry">
            <mxPoint x="190" y="770" as="sourcePoint" />
            <mxPoint x="20" y="620" as="targetPoint" />
          </mxGeometry>
        </mxCell>
        <mxCell id="zuMJynPyvGd5iTl56l23-11" value="Balesetek&lt;div&gt;Torlódások (eltérítés)&lt;/div&gt;&lt;div&gt;Csúszós utak&lt;/div&gt;&lt;div&gt;&lt;br&gt;&lt;/div&gt;&lt;div&gt;Késő vonatok (random), ha baleset akkor több&lt;/div&gt;&lt;div&gt;Buszok&lt;/div&gt;&lt;div&gt;&lt;br&gt;&lt;/div&gt;&lt;div&gt;&lt;br&gt;&lt;/div&gt;&lt;div&gt;&lt;br&gt;&lt;/div&gt;&lt;div&gt;&lt;br&gt;&lt;/div&gt;&lt;div&gt;&lt;br&gt;&lt;/div&gt;" style="text;html=1;align=center;verticalAlign=middle;whiteSpace=wrap;rounded=0;" parent="WIyWlLk6GJQsqaUBKTNV-1" vertex="1">
          <mxGeometry x="80" y="830" width="150" height="30" as="geometry" />
        </mxCell>
        <mxCell id="zuMJynPyvGd5iTl56l23-13" value="Páratartalom" style="text;html=1;align=center;verticalAlign=middle;whiteSpace=wrap;rounded=0;" parent="WIyWlLk6GJQsqaUBKTNV-1" vertex="1">
          <mxGeometry x="-110" y="620" width="60" height="30" as="geometry" />
        </mxCell>
        <mxCell id="zuMJynPyvGd5iTl56l23-14" value="Dolgok amik több napik tartanak -&amp;gt; esemény történése esetén az esélyek növelése, egy idő után eredeti esély" style="text;html=1;align=center;verticalAlign=middle;whiteSpace=wrap;rounded=0;fillColor=#dae8fc;strokeColor=#6c8ebf;" parent="WIyWlLk6GJQsqaUBKTNV-1" vertex="1">
          <mxGeometry x="-660" y="470" width="362.5" height="160" as="geometry" />
        </mxCell>
        <mxCell id="tSDlvJCKTFInjBsE9mPS-0" value="Első generálás:&lt;div&gt;&lt;br&gt;&lt;/div&gt;&lt;div&gt;- Katasztrófák&lt;/div&gt;&lt;div&gt;- mezőgazdászati események&lt;/div&gt;&lt;div&gt;- közlekedés események&lt;/div&gt;&lt;div&gt;- régiók&lt;/div&gt;&lt;div&gt;- szélfajták&lt;/div&gt;&lt;div&gt;-típusok&lt;/div&gt;" style="text;html=1;align=center;verticalAlign=middle;whiteSpace=wrap;rounded=0;" parent="WIyWlLk6GJQsqaUBKTNV-1" vertex="1">
          <mxGeometry x="-300" y="170" width="60" height="30" as="geometry" />
        </mxCell>
        <mxCell id="tSDlvJCKTFInjBsE9mPS-1" value="Nap típusa" style="text;html=1;align=center;verticalAlign=middle;whiteSpace=wrap;rounded=0;" parent="WIyWlLk6GJQsqaUBKTNV-1" vertex="1">
          <mxGeometry x="-210" y="140" width="60" height="30" as="geometry" />
        </mxCell>
      </root>
    </mxGraphModel>
  </diagram>
</mxfile>
